<svg version="1.2" xmlns="http://www.w3.org/2000/svg" viewBox="0 0 129 121" width="129" height="121"><defs><clipPath clipPathUnits="userSpaceOnUse" id="cp1"><path d="m-200-158h800v600h-800z"/></clipPath></defs><style>tspan{white-space:pre}.a{fill:#f7f6da;stroke:#231f20;stroke-linejoin:round}.b{fill:#fff}.c{fill:none;stroke:#231f20;stroke-linecap:round;stroke-linejoin:round}.d{fill:#ededc2;stroke:#231f20;stroke-linejoin:round}.e{fill:none;stroke:#231f20;stroke-linejoin:round}.f{fill:#f7f6da;stroke:#000;stroke-linejoin:round}.g{fill:#fbffe9;stroke:#231f20;stroke-linejoin:round}.h{font-size: 13px;fill: #000000;font-weight: 500;font-family: "Avenir"}</style><g clip-path="url(#cp1)"><path class="a" d="m64 8c13.7 5.7 11.9 12.4 11.9 12.4 0 3.1-2.1 5.6-4.8 5.6h-14.2c-2.6 0-4.8-2.5-4.8-5.6 0 0-1.8-6.7 11.9-12.4z"/><path class="b" d="m64 7.5v-5.8"/><path class="c" d="m64 7.5v-5.8"/><path class="d" d="m50 26h29v9h-29z"/><path class="d" d="m38 49h9v36h-9z"/><path class="e" d="m43 39c8 3.2 7 6.9 7 6.9 0 1.7-1.3 3.1-2.9 3.1h-8.2c-1.6 0-2.9-1.4-2.9-3.1 0 0-1-3.7 7-6.9z"/><path class="c" d="m43.1 38.9v-3.7"/><path class="d" d="m81 49h9v36h-9z"/><path class="a" d="m86 39c8 3.2 7 6.9 7 6.9 0 1.7-1.3 3.1-2.9 3.1h-8.2q-0.2 0-0.4 0c-1.4-0.2-2.5-1.5-2.5-3.1 0 0-0.5-2.1 2.5-4.5 1-0.8 2.5-1.6 4.5-2.4z"/><path class="c" d="m85.9 38.9v-3.7"/><path class="e" d="m80.3 54.3h-33.4"/><path class="e" d="m80.3 54.3h-33.4"/><path class="d" d="m39 85h51v7h-51z"/><path class="a" d="m47 40c0-4.3 3.5-5 7.8-5h18.4c4.3 0 7.8 0.7 7.8 5v1h-34z"/><path class="a" d="m43 39c2 0.8 3.4 1.6 4.5 2.4 3 2.4 2.5 4.5 2.5 4.5 0 1.6-1.1 2.9-2.5 3.1q-0.2 0-0.4 0h-8.2c-1.6 0-2.9-1.4-2.9-3.1 0 0-1-3.7 7-6.9z"/><path class="d" d="m47 49c1.4-0.2 2.4-1.4 2.4-3 0 0 0.6-2-2.4-4.3v-0.7h34v0.7c-3 2.3-2.4 4.3-2.4 4.3 0 1.6 1 2.8 2.4 3v5h-34v-5z"/><path class="e" d="m47 54h34v31h-34z"/><path class="f" d="m47 54h12v31h-12z"/><path class="f" d="m58 54h12v31h-12z"/><path class="f" d="m69 54h12v31h-12z"/><path class="d" d="m47 79h34v6h-34z"/><path class="e" d="m57.1 45.7v4.7"/><path class="e" d="m63.9 45.7v4.7"/><path class="e" d="m71.7 45.7v4.7"/><path class="e" d="m116.5 62h-26.5"/><path class="e" d="m90 54h26v8h-26z"/><path class="a" d="m90 62h26v23h-26z"/><path class="d" d="m116 49h9v36h-9z"/><path class="a" d="m128 45.9c0 1.7-1.3 3.1-2.9 3.1h-8.2c-1.6 0-2.9-1.4-2.9-3.1 0 0-1-3.7 7-6.9 8 3.2 7 6.9 7 6.9z"/><path class="c" d="m120.7 38.9v-3.7"/><path class="d" d="m107.1 68h2.8c1.2 0.9 1.1 2.1 1.1 2.1v2.9h-5v-2.9c0 0-0.1-1.2 1.1-2.1z"/><path class="d" d="m106 79h5v6h-5z"/><path class="d" d="m96.1 68h2.8c1.2 0.9 1.1 2.1 1.1 2.1v2.9h-5v-2.9c0 0-0.1-1.2 1.1-2.1z"/><path class="d" d="m95 79h5v6h-5z"/><path class="g" d="m90 54h9v8h-9z"/><path class="g" d="m99 54h8v8h-8z"/><path class="g" d="m107 54h9v8h-9z"/><path class="e" d="m12 62h26.5"/><path class="a" d="m12 62h26v23h-26z"/><path class="e" d="m12 54h26v8h-26z"/><path class="d" d="m3 49h9v36h-9z"/><path class="a" d="m8 39c8 3.2 7 6.9 7 6.9 0 1.7-1.3 3.1-2.9 3.1h-8.2c-1.6 0-2.9-1.4-2.9-3.1 0 0-1-3.7 7-6.9z"/><path class="c" d="m7.3 38.9v-3.7"/><path class="d" d="m22 70.1v2.9h-5v-2.9c0 0-0.1-1.2 1.1-2.1h2.8c1.2 0.9 1.1 2.1 1.1 2.1z"/><path class="d" d="m17 79h5v6h-5z"/><path class="d" d="m33 70.1v2.9h-5v-2.9c0 0-0.1-1.2 1.1-2.1h2.8c1.2 0.9 1.1 2.1 1.1 2.1z"/><path class="d" d="m28 79h5v6h-5z"/><path class="g" d="m12 54h9v8h-9z"/><path class="g" d="m21 54h8v8h-8z"/><path class="g" d="m29 54h9v8h-9z"/><text style="transform:matrix(1,0,0,1,34,118)" ><tspan x="0" y="0" class="h">Bangalore
</tspan></text></g></svg>