<svg version="1.2" xmlns="http://www.w3.org/2000/svg" viewBox="0 0 124 124" width="124" height="124"><defs><clipPath clipPathUnits="userSpaceOnUse" id="cp1"><path d="m-370-153h800v600h-800z"/></clipPath></defs><style>tspan{white-space:pre}.a{fill:#fff}.b{fill:#ff8c78;stroke:#231f20;stroke-linecap:round;stroke-linejoin:round}.c{fill:#ecefd6}.d{fill:none;stroke:#231f20;stroke-linecap:round;stroke-linejoin:round}.e{fill:#ff8c78}.f{fill:#be664d}.g{fill:#be664d;stroke:#231f20;stroke-linejoin:round}.h{fill:#be664d;stroke:#231f20;stroke-linecap:round;stroke-linejoin:round}.i{fill:#ff8c77}.j{font-size: 13px;fill: #000000;font-weight: 500;font-family: "Avenir"}</style><g clip-path="url(#cp1)"><path class="a" d="m2 61h17v33h-17z"/><path class="b" d="m2 61h17v31.8h-17z"/><path class="c" d="m13.8 46.9l5.2 14.1h-17l5.2-14.1z"/><path class="d" d="m19 61h-17l5.2-14.1h6.6z"/><path class="c" d="m7.3 42.2h6.2l0.2 1.2v3.5h-6.4z"/><path class="d" d="m7.3 42.2h6.4v4.7h-6.4z"/><path class="e" d="m2 61h17v17.7h-17z"/><path class="d" d="m2 61h17v17.7h-17z"/><path class="f" d="m7.2 93v-7.3c0-1.4 1.4-2.5 3.3-2.5 1.8 0 3.3 1.1 3.3 2.5v7.3z"/><path class="d" d="m7.2 92.8v-7.1c0-1.4 1.4-2.5 3.3-2.5 1.8 0 3.3 1.1 3.3 2.5v7.1z"/><path class="f" d="m7.2 78.7v-10.8c0-1.4 1.4-2.6 3.3-2.6 1.8 0 3.3 1.2 3.3 2.6v10.8z"/><path class="d" d="m7.2 78.7v-10.8c0-1.4 1.4-2.6 3.3-2.6 1.8 0 3.3 1.2 3.3 2.6v10.8z"/><path class="b" d="m53.5 32.3h17.2v60.5h-17.2z"/><path class="c" d="m70.7 32.3h-17.2l5.3-16.9h6.7z"/><path class="d" d="m70.7 32.3h-17.2l5.3-16.9h6.7z"/><path class="c" d="m58.8 10.2h6.7v5.2h-6.7z"/><path class="d" d="m58.8 10.2h6.7v5.2h-6.7z"/><path class="a" d="m62.1 10.2v-8.8"/><path class="d" d="m62.1 10.2v-8.8"/><path class="g" d="m58.8 83.4h5.9v9.2h-5.9z"/><path class="f" d="m58.8 60.1v-7.3c0-1.4 1.5-2.5 3.3-2.5 1.8 0 3.3 1.1 3.3 2.5v7.3z"/><path class="d" d="m58.8 60.1v-7.3c0-1.4 1.5-2.5 3.3-2.5 1.8 0 3.3 1.1 3.3 2.5v7.3z"/><path class="e" d="m53.5 60.1h17.2v17.9h-17.2z"/><path class="d" d="m53.5 60.1h17.2v17.9h-17.2z"/><path class="f" d="m58.8 78v-10.2c0-1.4 1.5-2.5 3.3-2.5 1.8 0 3.3 1.1 3.3 2.5v10.2z"/><path class="d" d="m58.8 78v-10.2c0-1.4 1.5-2.5 3.3-2.5 1.8 0 3.3 1.1 3.3 2.5v10.2z"/><path class="f" d="m65.1 41.6c0 1.8-1.3 3.3-3 3.3-1.7 0-3-1.5-3-3.3 0-1.8 1.3-3.3 3-3.3 1.7 0 3 1.5 3 3.3"/><ellipse class="d" cx="62.1" cy="41.6" rx="3" ry="3.3"/><path class="a" d="m105.1 60.1h17.3v32.9h-17.3z"/><path class="c" d="m110.4 46h6.7l5.3 14.1h-17.3z"/><path class="d" d="m110.4 46h6.7l5.3 14.1h-17.3z"/><path class="c" d="m110.4 40.8h6.7v5.2h-6.7z"/><path class="d" d="m110.4 40.8h6.7v5.2h-6.7z"/><path class="e" d="m105.1 60.1h17.3v17.9h-17.3z"/><path class="d" d="m105.1 60.1h17.3v17.9h-17.3z"/><path class="b" d="m105.1 78h17.3v14.8h-17.3z"/><path class="h" d="m113.1 92.8h-2.7v-7.1c0-1.4 1.5-2.5 3.3-2.5 1.9 0 3.3 1.1 3.3 2.5v7.1z"/><path class="f" d="m110.4 78v-10.2c0-1.4 1.5-2.5 3.3-2.5 1.9 0 3.3 1.1 3.3 2.5v10.2z"/><path class="d" d="m110.4 78v-10.2c0-1.4 1.5-2.5 3.3-2.5 1.9 0 3.3 1.1 3.3 2.5v10.2z"/><path class="b" d="m71.1 60.1h34v32.7h-34z"/><path class="c" d="m70.7 60.1h34.4v7.5h-34.4z"/><path class="d" d="m70.7 60.1h34.4v7.5h-34.4z"/><path class="e" d="m70.7 67.6h34.4v12.1h-34.4z"/><path class="d" d="m70.7 67.6h34.4v12.1h-34.4z"/><path class="f" d="m84.5 86.5h-7.4z"/><path class="g" d="m77.4 85.8h7.3v7h-7.3z"/><path class="f" d="m77.2 79.7v-5.9c0-1.2 1.6-2.2 3.6-2.2 2 0 3.7 1 3.7 2.2v5.9z"/><path class="d" d="m77.2 79.7v-5.9c0-1.2 1.6-2.2 3.6-2.2 2 0 3.7 1 3.7 2.2v5.9z"/><path class="f" d="m98.6 86.5h-7.4z"/><path class="g" d="m91.2 85.8h7.3v7h-7.3z"/><path class="f" d="m91.3 79.7v-5.9c0-1.2 1.6-2.2 3.6-2.2 2 0 3.7 1 3.7 2.2v5.9z"/><path class="d" d="m91.3 79.7v-5.9c0-1.2 1.6-2.2 3.6-2.2 2 0 3.7 1 3.7 2.2v5.9z"/><path class="i" d="m19.1 60.1h34.4v32.9h-34.4z"/><path class="d" d="m19.1 60.1h34.4v32.7h-34.4z"/><path class="c" d="m19.1 60.1h34.4v7.5h-34.4z"/><path class="d" d="m19.1 60.1h34.4v7.5h-34.4z"/><path class="e" d="m19.1 67.6h34.4v12.1h-34.4z"/><path class="d" d="m19.1 67.6h34.4v12.1h-34.4z"/><path class="g" d="m40 85.8h7.4v6.5h-7.4z"/><path class="f" d="m39.7 79.7v-5.9c0-1.2 1.7-2.2 3.7-2.2 2 0 3.6 1 3.6 2.2v5.9z"/><path class="d" d="m39.7 79.7v-5.9c0-1.2 1.7-2.2 3.7-2.2 2 0 3.6 1 3.6 2.2v5.9z"/><path class="g" d="m25.5 85.8h7.4v6.5h-7.4z"/><path class="f" d="m25.6 79.7v-5.9c0-1.2 1.7-2.2 3.7-2.2 2 0 3.6 1 3.6 2.2v5.9z"/><path class="d" d="m25.6 79.7v-5.9c0-1.2 1.7-2.2 3.7-2.2 2 0 3.6 1 3.6 2.2v5.9z"/><text style="transform:matrix(1,0,0,1,39,123)" ><tspan x="0" y="0" class="j">Chennai
</tspan></text></g></svg>