<svg version="1.2" xmlns="http://www.w3.org/2000/svg" viewBox="0 0 104 102" width="104" height="102"><defs><clipPath clipPathUnits="userSpaceOnUse" id="cp1"><path d="m-514-347h800v600h-800z"/></clipPath></defs><style>tspan{white-space:pre}.a{fill:#cfb997;stroke:#231f20;stroke-linecap:round;stroke-linejoin:round}.b{fill:#f2e4c5;stroke:#231f20;stroke-linecap:round;stroke-linejoin:round}.c{fill:#fff}.d{fill:none;stroke:#231f20;stroke-linecap:round;stroke-linejoin:round}.e{fill:#cfb997}.f{font-size: 13px;fill: #000000;font-weight: 500;font-family: "Avenir"}</style><g clip-path="url(#cp1)"><path class="a" d="m27.7 45h0.3v3h-27v-7h25.2c0 0.2 0 0.5 0 0.8v1.7c0 0.8 0.6 1.5 1.5 1.5z"/><path class="b" d="m26.2 41h-25.2v-7h27v4.9h-0.3c-0.9 0-1.5 0.6-1.5 1.3z"/><path class="b" d="m1 48h27v26h-27z"/><path class="a" d="m7 74v-11.6l0.9-0.8c-0.2-8 6.6-9.6 6.6-9.6 0 0 6.7 1.6 6.6 9.6l0.9 0.8v11.6h-7.5z"/><path class="b" d="m67.2 40.4v3.3c0 0.8 0.6 1.4 1.4 1.4h0.4v0.1 28.8h-33v-28.8h0.4c0.8 0 1.4-0.7 1.4-1.5v-3.2-1.5h29.4z"/><rect class="c" x="67" y="27" width="10" height="5" rx="1.4"></rect><rect class="d" x="67" y="27" width="10" height="5" rx="1.4"></rect><path class="a" d="m52 30v9h-16v-6.7-0.1c0.7-0.1 1.2-0.7 1.2-1.4v-0.8z"/><path class="a" d="m67.9 32.2l0.1 0.1v6.7h-16v-9h14.8v0.8 0.1c0 0.6 0.5 1.1 1.1 1.3z"/><path class="a" d="m34 27h-4v-6h4z"/><path class="a" d="m34 16h-4v-5h4z"/><path class="a" d="m36 39h-8v-7h8z"/><path class="a" d="m36 74h-8v-29h8z"/><path class="b" d="m35 9.4c0 0.9-0.5 1.6-1.2 1.6h-3.6c-0.7 0-1.2-0.7-1.2-1.6v-0.1c-0.1-3.6 3-4.3 3-4.3 0 0 3.1 0.7 3 4.3z"/><path class="c" d="m32.1 5.7v-3.5"/><path class="d" d="m32 4.5v-3.5"/><rect class="b" x="28" y="16" width="7" height="5" rx="1.6"></rect><rect class="b" x="27" y="27" width="10" height="5" rx="1.4"></rect><path class="b" d="m36.9 30v-1.4c0-0.8-0.7-1.4-1.5-1.4h-1.4v-6.2h36v6.1h-1.4c-0.8 0-1.5 0.7-1.5 1.5v1.4z"/><path class="a" d="m74 27h-4v-6h4z"/><path class="a" d="m74 16h-4v-5h4z"/><path class="a" d="m76 39h-8v-7h8z"/><path class="a" d="m76 74h-7v-29h7z"/><path class="b" d="m75 9.4c0 0.9-0.5 1.6-1.2 1.6h-3.6c-0.7 0-1.2-0.7-1.2-1.6v-0.1c-0.1-3.6 3-4.3 3-4.3 0 0 3.1 0.7 3 4.3z"/><path class="c" d="m72.2 5.7v-3.5"/><path class="d" d="m72 4.5v-3.5"/><rect class="b" x="68" y="16" width="7" height="5" rx="1.6"></rect><rect class="b" x="67" y="27" width="10" height="5" rx="1.4"></rect><rect class="b" x="67" y="39" width="11" height="6" rx="1.4"></rect><rect class="b" x="26" y="39" width="12" height="6" rx="1.4"></rect><path class="a" d="m40 74v-16.4l1.4-1.1c-0.2-11.3 10.1-13.5 10.1-13.5 0 0 10.3 2.2 10.1 13.5l1.4 1.1v16.4h-11.5z"/><path class="b" d="m76 48h27v26h-27z"/><path class="b" d="m103 34v7h-25.2v-0.8c0-0.7-0.6-1.3-1.5-1.3h-0.3v-4.9z"/><path class="a" d="m103 41v7h-27v-3h0.3c0.9 0 1.5-0.7 1.5-1.6v-1.6q0 0 0 0c0-0.3 0-0.6 0-0.8z"/><path class="e" d="m89.5 74h-7.5v-11.6l0.9-0.8c-0.1-8 6.6-9.6 6.6-9.6 0 0 6.8 1.6 6.6 9.6l0.9 0.8v11.6z"/><path class="d" d="m89.5 74h-7.5v-11.6l0.9-0.8c-0.1-8 6.6-9.6 6.6-9.6 0 0 6.8 1.6 6.6 9.6l0.9 0.8v11.6z"/><text style="transform:matrix(1,0,0,1,27,101)" ><tspan x="0" y="0" class="f">Mumbai
</tspan></text></g></svg>