<svg version="1.2" xmlns="http://www.w3.org/2000/svg" viewBox="0 0 66 119" width="66" height="119"><defs><clipPath clipPathUnits="userSpaceOnUse" id="cp1"><path d="m-540-158h800v600h-800z"/></clipPath></defs><style>tspan{white-space:pre}.a{fill:#efd7ab;stroke:#231f20;stroke-linecap:round;stroke-linejoin:round}.b{fill:#efd7ab}.c{fill:none;stroke:#231f20;stroke-linecap:round;stroke-linejoin:round}.d{fill:#eac591}.e{fill:#eac591;stroke:#231f20;stroke-linecap:round;stroke-linejoin:round}.f{fill:#fff}.g{font-size: 13px;fill: #000000;font-weight: 500;font-family: "Avenir"}</style><g clip-path="url(#cp1)"><path class="a" d="m43.3 50c0-5.5-4.6-10-10.3-10-5.7 0-10.3 4.5-10.3 10h-19.7v-20h60v20z"/><path class="b" d="m51.3 9.5h6.7v8.5h-24.5-24.5v-8.5h6.7v-5.1-0.1c3.6 0 10.1-0.4 12.8-1.8 0.4-0.1 0.7-0.4 1.1-0.6 0.8-0.5 2.3-0.9 3.9-0.9 1.6 0 3.1 0.4 3.9 0.9 0.4 0.2 0.7 0.5 1.1 0.6 2.7 1.4 9.2 1.8 12.8 1.8v0.1z"/><path class="c" d="m51.3 9.5h6.7v8.5h-24.5-24.5v-8.5h6.7v-5.1-0.1c3.6 0 10.1-0.4 12.8-1.8 0.4-0.1 0.7-0.4 1.1-0.6 0.8-0.5 2.3-0.9 3.9-0.9 1.6 0 3.1 0.4 3.9 0.9 0.4 0.2 0.7 0.5 1.1 0.6 2.7 1.4 9.2 1.8 12.8 1.8v0.1z"/><path class="d" d="m18 39c0 1.7-1.3 3-3 3-1.7 0-3-1.3-3-3 0-1.7 1.3-3 3-3 1.7 0 3 1.3 3 3"/><circle class="c" cx="15" cy="39" r="3"/><path class="d" d="m53 39c0 1.7-1.3 3-3 3-1.7 0-3-1.3-3-3 0-1.7 1.3-3 3-3 1.7 0 3 1.3 3 3"/><circle class="c" cx="50" cy="39" r="3"/><rect class="d" x="3" y="18" width="60" height="6" rx="1.5"></rect><rect class="c" x="3" y="18" width="60" height="6" rx="1.5"></rect><rect class="d" x="1" y="23" width="64" height="7" rx="1.5"></rect><rect class="c" x="1" y="23" width="64" height="7" rx="1.5"></rect><rect class="d" x="1" y="50" width="24" height="4" rx="1.2"></rect><rect class="c" x="1" y="50" width="24" height="4" rx="1.2"></rect><rect class="d" x="41" y="50" width="24" height="4" rx="1.2"></rect><rect class="c" x="41" y="50" width="24" height="4" rx="1.2"></rect><path class="b" d="m43 54h20v31h-20z"/><path class="c" d="m43 54h20v31h-20z"/><path class="b" d="m3 54h20v31h-20z"/><path class="c" d="m3 54h20v31h-20z"/><path class="e" d="m42.9 85h-19.9v-30.5h1c0.7 0 1.3-0.6 1.3-1.4v-1.7c0-0.7-0.6-1.5-1.3-1.5h-1c0-5.6 4.5-9.9 10-9.9 5.5 0 10 4.3 10 9.9h-1c-0.8 0-1.4 0.8-1.4 1.5v1.7c0 0.8 0.6 1.4 1.4 1.4h0.9z"/><path class="f" d="m3 84h59"/><text style="transform:matrix(1,0,0,1,18,118)" ><tspan x="0" y="0" class="g">Delhi
</tspan></text></g></svg>