<svg version="1.2" xmlns="http://www.w3.org/2000/svg" viewBox="0 0 72 132" width="72" height="132"><defs><clipPath clipPathUnits="userSpaceOnUse" id="cp1"><path d="m-674-147h800v600h-800z"/></clipPath></defs><style>tspan{white-space:pre}.a{fill:#eac591;stroke:#231f20;stroke-linejoin:round}.b{fill:#efd7ab;stroke:#231f20;stroke-linejoin:round}.c{fill:none;stroke:#231f20;stroke-linecap:round;stroke-linejoin:round}.d{fill:#efd7ab;stroke:#231f20;stroke-linecap:round;stroke-linejoin:round}.e{fill:none;stroke:#231f20;stroke-linejoin:round}.f{fill:#efd7ab}.g{fill:#eac591;stroke:#231f20;stroke-linecap:round;stroke-linejoin:round}.h{font-size: 13px;fill: #000000;font-weight: 500;font-family: "Avenir"}</style><g clip-path="url(#cp1)"><path class="a" d="m6.3 23.3h6.4v11.7h-3-3.4z"/><path class="a" d="m6.3 11.6h6.4v5.8h-6.4z"/><path class="a" d="m4.2 39.7h10.7v12.9h-10.7z"/><path class="a" d="m4.1 62h10.4v33.3h-10.4z"/><path class="b" d="m9.4 4.5c4.8 2.2 4.2 4.9 4.2 4.9 0 1.2-0.8 2.2-1.7 2.2h-4.9c-0.9 0-1.7-1-1.7-2.2 0 0-0.6-2.7 4.1-4.9z"/><path class="c" d="m9.3 3.9v-2.9"/><rect class="d" x="4.3" y="17.3" width="10" height="7.2" rx="1.4"></rect><rect class="b" x="2.4" y="33.7" width="13.7" height="7.6" rx="1.4"></rect><rect class="d" x="1.6" y="52.9" width="15.3" height="9.1" rx="1.4"></rect><path class="e" d="m14.5 41.3h37.1v4.9h-37.1z"/><path class="a" d="m14.5 41.3h6v4.9h-6z"/><path class="a" d="m20.5 41.3h6.1v4.9h-6.1z"/><path class="a" d="m26.6 41.3h6.4v4.9h-6.4z"/><path class="a" d="m33 41.3h6.4v4.9h-6.4z"/><path class="a" d="m39.4 41.3h6.1v4.9h-6.1z"/><path class="a" d="m45.5 41.3h6.1v4.9h-6.1z"/><path class="a" d="m23 60.8v-4.8c0 0-0.2-2.8 3.5-5 3.8 2.2 3.6 5 3.6 5v4.8z"/><path class="a" d="m30 60.8v-4.8c0 0-0.2-2.8 3-5 3.2 2.2 3.1 5 3.1 5v4.8z"/><path class="a" d="m17 60.8v-4.8c0 0-0.2-2.8 3.2-5 3.4 2.2 3.2 5 3.2 5v4.8z"/><path class="a" d="m36.2 60.5v-4.8c0 0-0.2-2.9 3.2-5 3.4 2.1 3.3 5 3.3 5v4.8z"/><path class="a" d="m42.6 60.5v-4.8c0 0-0.1-2.9 3.3-5 3.4 2.1 3.2 5 3.2 5v4.8z"/><path class="d" d="m16.9 55.4v-1.1c0-0.8-0.6-1.4-1.3-1.4h-1.1v-6.7h37.1v6.7h-1.2c-0.7 0-1.3 0.6-1.3 1.4v1.4c0 0 0.2-2.9-3.2-5-3.4 2.1-3.3 5-3.3 5h0.1c0 0 0.1-2.9-3.3-5-3.4 2.1-3.2 5-3.2 5 0 0 0.2-2.9-3.2-5-3.4 2.1-3.2 5-3.2 5 0 0 0.2-2.9-3.2-5-3.4 2.1-3.3 5-3.3 5h0.1c0 0 0.1-2.9-3.3-5-3.4 2.1-3.2 5-3.2 5z"/><path class="a" d="m53.8 24.5h6v9.2h-6z"/><path class="a" d="m53.8 11.2h6v6.1h-6z"/><path class="a" d="m51.6 41.3h10.3v11.6h-10.3z"/><path class="a" d="m51.6 62h10.3v33.3h-10.3z"/><path class="b" d="m56.8 3.9c4.7 2.3 4.1 5.1 4.1 5.1 0 1.2-0.7 2.2-1.7 2.2h-4.9c-0.9 0-1.7-1-1.7-2.2 0 0-0.6-2.8 4.2-5.1z"/><path class="c" d="m56.8 3.9v-2.9"/><rect class="d" x="51.8" y="17.3" width="10" height="7.2" rx="1.4"></rect><rect class="f" x="49.9" y="33.7" width="13.7" height="7.6" rx="1.4"></rect><rect class="c" x="49.9" y="33.7" width="13.7" height="7.6" rx="1.4"></rect><rect class="f" x="49.1" y="52.9" width="15.3" height="9.1" rx="1.4"></rect><rect class="c" x="49.1" y="52.9" width="15.3" height="9.1" rx="1.4"></rect><path class="b" d="m50.4 62h1.1v33.3h-37.1v-33.3h1.2c0.7 0 1.3-0.7 1.3-1.5h32.2c0 0.8 0.6 1.5 1.3 1.5z"/><ellipse class="g" cx="20.8" cy="67.4" rx="2.5" ry="2.7"/><ellipse class="g" cx="45.1" cy="67.4" rx="2.5" ry="2.7"/><path class="a" d="m22.6 95.3v-15.3c0 0-0.8-8.1 10.4-13.5 11.2 5.4 10.5 13.5 10.5 13.5v15.3z"/><text style="transform:matrix(1,0,0,1,1,129)" ><tspan x="0" y="0" class="h">Hyderabad
</tspan></text></g></svg>