<svg version="1.2" xmlns="http://www.w3.org/2000/svg" viewBox="0 0 69 126" width="69" height="126"><defs><clipPath clipPathUnits="userSpaceOnUse" id="cp1"><path d="m-210-323h800v600h-800z"/></clipPath></defs><style>tspan{white-space:pre}.a{fill:#f2e4c5;stroke:#231f20;stroke-linecap:round;stroke-linejoin:round}.b{fill:#cfb997;stroke:#231f20;stroke-linejoin:round}.c{fill:none;stroke:#231f20;stroke-linecap:round;stroke-linejoin:round}.d{fill:#f2e4c5}.e{fill:none;stroke:#231f20;stroke-linejoin:round}.f{fill:#fff}.g{fill:#f2e4c5;stroke:#231f20;stroke-linejoin:round}.h{fill:#cfb997;stroke:#231f20;stroke-linecap:round;stroke-linejoin:round}.i{font-size: 13px;fill: #000000;font-weight: 500;font-family: "Avenir"}</style><g clip-path="url(#cp1)"><path class="a" d="m15 70v-11.2-0.3l0.3-3.8c0 0 0-0.6 0-1.4 4.7-2.6 11.8-4.3 19.7-4.3 7.9 0 15 1.7 19.7 4.3 0 0.8 0 1.4 0 1.4l0.3 3.8v11.5c-5.7-1.5-12.6-2.3-20-2.3-7.4 0-14.3 0.8-20 2.3z"/><path class="b" d="m41.5 29h-15.9l-0.6-5.9c0 0-0.6-11.2 8.6-17.1 9.1 5.9 8.4 17.2 8.4 17.2z"/><path class="c" d="m33.4 5.8v-4.6"/><path class="a" d="m42 35.5v10.5c-2.5-0.4-5.2-0.6-8.1-0.6-2.7 0-5.4 0.2-7.9 0.6v-10.8l0.3-3.3c0 0 0-1.2-0.3-2.9h16c-0.4 1.7-0.3 2.9-0.3 2.9l0.3 3.3v0.3z"/><path class="b" d="m32 45v-9.7c0-1.2 1.1-2.3 2.5-2.3 1.4 0 2.5 1.1 2.5 2.3v9.7q-1.2-0.1-2.5-0.1-1.3 0-2.5 0.1z"/><path class="c" d="m20 21v-3"/><path class="b" d="m25.7 28.7c0.4 1.6 0.3 2.8 0.3 2.8l-0.3 3.2v0.3h-11.3l-0.4-3.6c0 0-0.5-6.8 6-10.4 3.8 2.1 5.2 5.3 5.7 7.7z"/><path class="d" d="m26 46c-4.2 0.6-8 1.6-11 3v-14h11v11"/><path class="e" d="m15 49v-14h11v11c-4.2 0.6-8 1.6-11 3z"/><path class="b" d="m19 47v-7.6c0-0.8 0.7-1.4 1.5-1.4 0.8 0 1.5 0.6 1.5 1.4v6.8q-1.6 0.4-3 0.8z"/><path class="f" d="m47.7 19.4v-3.3"/><path class="c" d="m48 21.3v-3.3"/><path class="b" d="m42.3 28.7c0.5-2.4 1.9-5.6 5.7-7.7 6.5 3.6 6 10.4 6 10.4l-0.4 3.6h-11.3v-0.3l-0.3-3.2c0 0-0.1-1.2 0.3-2.8z"/><path class="g" d="m42 46v-11h12v14c-3.3-1.4-7.4-2.4-12-3z"/><path class="b" d="m46 46.2v-6.8c0-0.8 0.7-1.4 1.5-1.4 0.8 0 1.5 0.6 1.5 1.4v7.6q-1.4-0.4-3-0.8z"/><path class="c" d="m59.9 43.6v-3.7"/><path class="b" d="m54.3 51.7h-0.1c0.5-2.4 1.8-5.6 5.3-7.7 5.9 3.6 5.5 10.4 5.5 10.4l-0.4 3.6h-10.3v-0.3l-0.3-3.2c0 0-0.1-1.2 0.2-2.8z"/><path class="g" d="m54 68.4v-10.4h11v14c-0.3-0.1-0.6-0.3-1-0.4-2.7-1.3-6.1-2.4-10-3.2z"/><path class="b" d="m58 69v-6.5c0-0.8 0.7-1.5 1.5-1.5 0.8 0 1.5 0.7 1.5 1.5v7.5q-1.4-0.5-3-1z"/><path class="h" d="m54 49v3.1q0 0.1 0 0.2-0.2 1-0.2 1.7c-4.7-2.4-11.6-3.9-19.3-3.9-7.7 0-14.6 1.5-19.2 3.9q-0.1-0.7-0.2-1.7-0.1-0.1-0.1-0.3v-3c4.6-2.4 11.7-4 19.5-4 7.8 0 14.9 1.6 19.5 4z"/><path class="c" d="m9.4 43.6v-3.7"/><path class="b" d="m14.8 51.7c0.3 1.6 0.2 2.8 0.2 2.8l-0.3 3.2v0.3h-10.3l-0.4-3.6c0 0-0.4-6.8 5.5-10.4 3.5 2.1 4.8 5.3 5.3 7.7h-0.1z"/><path class="g" d="m5 71.6c-0.3 0.1-0.7 0.3-1 0.4v-14h11v10.4c-3.9 0.8-7.3 1.9-10 3.2z"/><path class="b" d="m8 70v-7.5c0-0.8 0.7-1.5 1.5-1.5 0.8 0 1.5 0.7 1.5 1.5v6.5q-1.6 0.5-3 1z"/><path class="a" d="m66 98h-62v-20.9c6.5-3.7 18-6.1 31.1-6.1 13 0 24.3 2.4 30.9 5.9z"/><path class="b" d="m43 67.5v-7.2c0-1.3 1.1-2.3 2.5-2.3 1.4 0 2.5 1 2.5 2.3v7.7q-2.4-0.3-5-0.5z"/><path class="b" d="m32 68v-9.6c0-1.3 1.1-2.4 2.5-2.4 1.4 0 2.5 1.1 2.5 2.4v9.6q-1.2 0-2.5 0-1.2 0-2.5 0z"/><path class="b" d="m22 68v-7.7c0-1.3 1.1-2.3 2.5-2.3 1.4 0 2.5 1 2.5 2.3v7.2q-2.6 0.2-5 0.5z"/><path class="a" d="m1 73.5c5.6-4.4 18.5-7.5 33.5-7.5 15 0 27.9 3.1 33.5 7.5v5.5c-5.6-4.4-18.5-7.5-33.5-7.5-15 0-27.9 3.1-33.5 7.5z"/><path class="b" d="m38 87.5v10.5h-7v-10.5c0-1.9 1.6-3.5 3.5-3.5 1.9 0 3.5 1.6 3.5 3.5z"/><path class="b" d="m26 87.5v10.5h-7v-10.5c0-1.9 1.6-3.5 3.5-3.5 1.9 0 3.5 1.6 3.5 3.5z"/><path class="b" d="m15 87.5v10.5h-7v-10.5c0-1.9 1.6-3.5 3.5-3.5 1.9 0 3.5 1.6 3.5 3.5z"/><path class="b" d="m49 87.5v10.5h-7v-10.5c0-1.9 1.6-3.5 3.5-3.5 1.9 0 3.5 1.6 3.5 3.5z"/><path class="b" d="m61 87.5v10.5h-7v-10.5c0-1.9 1.6-3.5 3.5-3.5 1.9 0 3.5 1.6 3.5 3.5z"/><text style="transform:matrix(1,0,0,1,14,125)" ><tspan x="0" y="0" class="i">Kolkata
</tspan></text></g></svg>